# xmcd CD database file
#
# Track frame offsets:
#	150
#	21798
#	41321
#	62698
#	77868
#	87561
#	104099
#	123144
#	140272
#	154985
#	167740
#
# Disc length: 2537 seconds
#
# Revision: 0
# Processed by: cddbd v1.5.2PL0 Copyright (c) Steve Scherf et al.
# Submitted via: CDex 1.51
#
DISCID=8c09e70b
DTITLE=Elaine Lucia - A Sonny Day
DYEAR=2007
DGENRE=Jazz
TTITLE0=I like the Sunrise
TTITLE1=Lugar Bonito
TTITLE2=Sea Journey
TTITLE3=Sunny
TTITLE4=Fun Life
TTITLE5=I Only Have Eyes for You
TTITLE6=In the Land of Make Believe
TTITLE7=When the World is at Rest
TTITLE8=I Call You Sonny
TTITLE9=You Are There
TTITLE10=Final Remembrance
EXTD=YEAR: 2007
EXTT0=
EXTT1=
EXTT2=
EXTT3=
EXTT4=
EXTT5=
EXTT6=
EXTT7=
EXTT8=
EXTT9=
EXTT10=
PLAYORDER=
